<svg width="19" height="19" viewBox="0 0 19 19" fill="none" xmlns="http://www.w3.org/2000/svg">
<path d="M5.20833 0C2.33561 0 0 2.33561 0 5.20833V13.5417C0 16.4144 2.33561 18.75 5.20833 18.75H13.5417C16.4144 18.75 18.75 16.4144 18.75 13.5417V5.20833C18.75 2.33561 16.4144 0 13.5417 0H5.20833ZM5.20833 2.08333H13.5417C15.2629 2.08333 16.6667 3.48714 16.6667 5.20833V13.5417C16.6667 15.2629 15.2629 16.6667 13.5417 16.6667H5.20833C3.48714 16.6667 2.08333 15.2629 2.08333 13.5417V5.20833C2.08333 3.48714 3.48714 2.08333 5.20833 2.08333ZM14.5833 3.125C14.0096 3.125 13.5417 3.59294 13.5417 4.16667C13.5417 4.7404 14.0096 5.20833 14.5833 5.20833C15.1571 5.20833 15.625 4.7404 15.625 4.16667C15.625 3.59294 15.1571 3.125 14.5833 3.125ZM9.375 4.16667C6.50228 4.16667 4.16667 6.50228 4.16667 9.375C4.16667 12.2477 6.50228 14.5833 9.375 14.5833C12.2477 14.5833 14.5833 12.2477 14.5833 9.375C14.5833 6.50228 12.2477 4.16667 9.375 4.16667ZM9.375 6.25C11.0962 6.25 12.5 7.65381 12.5 9.375C12.5 11.0962 11.0962 12.5 9.375 12.5C7.65381 12.5 6.25 11.0962 6.25 9.375C6.25 7.65381 7.65381 6.25 9.375 6.25Z" fill="white"/>
</svg>
